<svg height="512pt" viewBox="0 -8 512 512" width="512pt" xmlns="http://www.w3.org/2000/svg"><path d="m400.800781 193.296875v34.742187h58.871094v-34.742187h-.542969v-34.171875h.542969v-16.285156c0-12.652344-7.960937-23.4375-19.132813-27.621094v-37.789062c-.753906 1.046874-1.976562 1.738281-3.363281 1.738281h-13.878906c-1.386719 0-2.609375-.691407-3.363281-1.738281v37.789062c-11.175782 4.183594-19.132813 14.96875-19.132813 27.621094v16.285156h1.199219v34.171875zm0 0" fill="#873cbe"/><path d="m440.539062 77.429688c-.753906 1.046874-1.976562 1.738281-3.363281 1.738281h-13.878906c-1.386719 0-2.609375-.691407-3.363281-1.738281v37.789062c-11.175782 4.183594-19.132813 14.96875-19.132813 27.621094v16.285156h20.90625v-16.285156c0-10.097656 6.34375-19.257813 15.785157-22.792969 1.976562-.738281 3.289062-2.605469 3.339843-4.707031-.101562-.039063-.195312-.085938-.292969-.121094zm0 0" fill="#701f85"/><path d="m400.800781 193.296875h20.90625v34.742187h-20.90625zm0 0" fill="#701f85"/><path d="m418.144531 75.011719c0 2.835937 2.320313 5.15625 5.152344 5.15625h13.878906c2.832031 0 5.148438-2.320313 5.148438-5.15625v-23.863281c0-2.832032-2.316407-5.152344-5.148438-5.152344h-13.878906c-2.832031 0-5.152344 2.320312-5.152344 5.152344zm0 0" fill="#ffcb00"/><path d="m430.101562 75.011719v-23.863281c0-2.832032 2.316407-5.152344 5.152344-5.152344h-11.957031c-2.832031 0-5.152344 2.320312-5.152344 5.152344v23.863281c0 2.835937 2.320313 5.15625 5.152344 5.15625h11.957031c-2.835937 0-5.152344-2.320313-5.152344-5.15625zm0 0" fill="#f39600"/><path d="m400.800781 159.125h58.871094v34.171875h-58.871094zm0 0" fill="#f8d5ab"/><path d="m400.800781 159.125h20.90625v34.171875h-20.90625zm0 0" fill="#eac092"/><path d="m381.316406 146.570312c1.957032 0 2.597656 1.285157 1.425782 2.851563l-34.28125 45.832031c-1.171876 1.566406-3.089844 1.566406-4.265626 0l-34.277343-45.832031c-1.171875-1.566406-.53125-2.851563 1.425781-2.851563zm0 0" fill="#abebff"/><path d="m338.828125 188.078125v39.960937h15v-39.964843l5.261719-7.027344-23.65625-31.625c-1.171875-1.566406-.53125-2.851563 1.425781-2.851563h-25.515625c-1.957031 0-2.597656 1.285157-1.425781 2.851563zm0 0" fill="#76d8ff"/><path d="m25.515625 263.996094v179.890625c0 2.835937 2.320313 5.15625 5.152344 5.15625h450.667969c2.832031 0 5.148437-2.320313 5.148437-5.15625v-179.890625zm0 0" fill="#72563c"/><path d="m54.015625 263.996094h403.96875v185.046875h-403.96875zm0 0" fill="#e0aa68"/><path d="m54.015625 263.996094h15.519531v185.046875h-15.519531zm0 0" fill="#b57a4e"/><path d="m512 259.839844c0 2.835937-2.316406 5.15625-5.148438 5.15625h-501.699218c-2.835938 0-5.152344-2.320313-5.152344-5.15625v-27.644532c0-2.835937 2.316406-5.15625 5.152344-5.15625h501.699218c2.832032 0 5.148438 2.320313 5.148438 5.15625zm0 0" fill="#eac092"/><path d="m46.871094 259.839844v-27.644532c0-2.835937 2.320312-5.15625 5.152344-5.15625h-46.871094c-2.835938 0-5.152344 2.320313-5.152344 5.15625v27.644532c0 2.835937 2.316406 5.15625 5.152344 5.15625h46.871094c-2.832032 0-5.152344-2.320313-5.152344-5.15625zm0 0" fill="#e0aa68"/><path d="m120.503906 333.585938h15v55.652343h-15zm0 0" fill="#8a8c8e"/><path d="m120.503906 402.238281v68.238281c2.394532-.671874 4.90625-1.042968 7.5-1.042968 2.589844 0 5.101563.371094 7.5 1.042968v-68.238281zm0 0" fill="#8a8c8e"/><path d="m173.710938 329.429688c0 2.835937-2.320313 5.15625-5.152344 5.15625h-81.113282c-2.832031 0-5.152343-2.320313-5.152343-5.15625v-23.429688c0-2.835938 2.320312-5.15625 5.152343-5.15625h81.113282c2.832031 0 5.152344 2.320312 5.152344 5.15625zm0 0" fill="#c7c8ca"/><path d="m114.105469 329.429688v-23.429688c0-2.835938 2.316406-5.15625 5.152343-5.15625h-31.8125c-2.832031 0-5.152343 2.320312-5.152343 5.15625v23.429688c0 2.835937 2.320312 5.15625 5.152343 5.15625h31.8125c-2.835937 0-5.152343-2.320313-5.152343-5.15625zm0 0" fill="#a7a9ac"/><path d="m152.355469 482.085938c-5.03125-8.1875-14.050781-13.652344-24.351563-13.652344-10.304687 0-19.324218 5.464844-24.355468 13.652344zm0 0" fill="#c7c8ca"/><path d="m176.851562 496.085938h-97.695312c-4.144531 0-7.5-3.359376-7.5-7.5 0-4.144532 3.355469-7.5 7.5-7.5h97.695312c4.140626 0 7.5 3.355468 7.5 7.5 0 4.140624-3.359374 7.5-7.5 7.5zm0 0" fill="#8a8c8e"/><path d="m243.460938 333.585938h15v55.652343h-15zm0 0" fill="#8a8c8e"/><path d="m243.460938 402.238281v68.238281c2.394531-.671874 4.910156-1.042968 7.5-1.042968 2.589843 0 5.105468.371094 7.5 1.042968v-68.238281zm0 0" fill="#8a8c8e"/><path d="m296.667969 329.429688c0 2.835937-2.316407 5.15625-5.148438 5.15625h-81.117187c-2.832032 0-5.148438-2.320313-5.148438-5.15625v-23.429688c0-2.835938 2.316406-5.15625 5.148438-5.15625h81.117187c2.832031 0 5.148438 2.320312 5.148438 5.15625zm0 0" fill="#c7c8ca"/><path d="m236.695312 329.429688v-23.429688c0-2.835938 2.320313-5.15625 5.152344-5.15625h-31.445312c-2.832032 0-5.148438 2.320312-5.148438 5.15625v23.429688c0 2.835937 2.316406 5.15625 5.148438 5.15625h31.445312c-2.832031 0-5.152344-2.320313-5.152344-5.15625zm0 0" fill="#a7a9ac"/><path d="m275.3125 482.085938c-5.03125-8.1875-14.046875-13.652344-24.351562-13.652344-10.304688 0-19.324219 5.464844-24.355469 13.652344zm0 0" fill="#c7c8ca"/><path d="m299.808594 496.085938h-97.695313c-4.140625 0-7.5-3.359376-7.5-7.5 0-4.144532 3.359375-7.5 7.5-7.5h97.695313c4.144531 0 7.5 3.355468 7.5 7.5 0 4.140624-3.359375 7.5-7.5 7.5zm0 0" fill="#8a8c8e"/><path d="m366.421875 402.238281v68.238281c2.394531-.671874 4.90625-1.042968 7.5-1.042968 2.589844 0 5.101563.371094 7.5 1.042968v-68.238281zm0 0" fill="#8a8c8e"/><path d="m366.421875 333.585938h15v55.652343h-15zm0 0" fill="#8a8c8e"/><path d="m419.628906 329.429688c0 2.835937-2.320312 5.15625-5.152344 5.15625h-81.113281c-2.835937 0-5.152343-2.320313-5.152343-5.15625v-23.429688c0-2.835938 2.316406-5.15625 5.152343-5.15625h81.113281c2.832032 0 5.152344 2.320312 5.152344 5.15625zm0 0" fill="#c7c8ca"/><path d="m360.050781 329.429688v-23.429688c0-2.835938 2.316407-5.15625 5.148438-5.15625h-31.839844c-2.832031 0-5.148437 2.320312-5.148437 5.15625v23.429688c0 2.835937 2.316406 5.15625 5.148437 5.15625h31.839844c-2.832031 0-5.148438-2.320313-5.148438-5.15625zm0 0" fill="#a7a9ac"/><path d="m398.273438 482.085938c-5.03125-8.1875-14.050782-13.652344-24.355469-13.652344-10.304688 0-19.320313 5.464844-24.355469 13.652344zm0 0" fill="#c7c8ca"/><path d="m422.765625 496.085938h-97.695313c-4.144531 0-7.5-3.359376-7.5-7.5 0-4.144532 3.355469-7.5 7.5-7.5h97.695313c4.144531 0 7.5 3.355468 7.5 7.5 0 4.140624-3.355469 7.5-7.5 7.5zm0 0" fill="#8a8c8e"/><path d="m25.144531 96.402344c-1.957031 0-2.597656-1.285156-1.421875-2.851563l34.28125-45.832031c1.171875-1.566406 3.089844-1.566406 4.261719 0l34.285156 45.832031c1.171875 1.566407.527344 2.851563-1.425781 2.851563zm0 0" fill="#abebff"/><g fill="#76d8ff"><path d="m45.1875 15h7.445312v.777344h15v-.777344h7.449219c4.140625 0 7.5-3.355469 7.5-7.5s-3.359375-7.5-7.5-7.5h-29.894531c-4.140625 0-7.5 3.355469-7.5 7.5s3.359375 7.5 7.5 7.5zm0 0"/><path d="m73.726562 63.039062-6.089843-8.140624v-18.648438h-15v18.644531l-28.914063 38.65625c-1.171875 1.566407-.53125 2.851563 1.421875 2.851563h27.183594c-1.957031 0-2.597656-1.285156-1.425781-2.851563zm0 0"/><path d="m108.179688 96.402344c-1.953126 0-2.597657-1.285156-1.421876-2.851563l34.28125-45.832031c1.171876-1.566406 3.089844-1.566406 4.261719 0l34.285157 45.832031c1.171874 1.566407.527343 2.851563-1.425782 2.851563zm0 0"/></g><path d="m128.222656 15h7.445313v.777344h15v-.777344h7.449219c4.140624 0 7.5-3.355469 7.5-7.5s-3.359376-7.5-7.5-7.5h-29.894532c-4.144531 0-7.5 3.355469-7.5 7.5s3.355469 7.5 7.5 7.5zm0 0" fill="#00a9ff"/><path d="m156.761719 63.039062-6.09375-8.144531v-18.644531h-15v18.644531l-28.914063 38.65625c-1.171875 1.566407-.53125 2.851563 1.425782 2.851563h27.183593c-1.957031 0-2.597656-1.285156-1.425781-2.851563zm0 0" fill="#00a9ff"/><path d="m191.214844 96.402344c-1.957032 0-2.597656-1.285156-1.425782-2.851563l34.28125-45.832031c1.171876-1.566406 3.089844-1.566406 4.265626 0l34.28125 45.832031c1.171874 1.566407.53125 2.851563-1.425782 2.851563zm0 0" fill="#abebff"/><path d="m211.253906 15h7.449219v.777344h15v-.777344h7.445313c4.144531 0 7.5-3.355469 7.5-7.5s-3.355469-7.5-7.5-7.5h-29.894532c-4.140625 0-7.5 3.355469-7.5 7.5s3.359375 7.5 7.5 7.5zm0 0" fill="#76d8ff"/><path d="m239.792969 63.039062-6.089844-8.140624v-18.648438h-15v18.644531l-28.914063 38.65625c-1.171874 1.566407-.53125 2.851563 1.425782 2.851563h27.183594c-1.957032 0-2.597657-1.285156-1.425782-2.851563zm0 0" fill="#76d8ff"/><path d="m364.21875 32.09375c0 2.835938-2.320312 5.15625-5.152344 5.15625h-353.914062c-2.835938 0-5.152344-2.320312-5.152344-5.15625v-12.160156c0-2.835938 2.316406-5.15625 5.152344-5.15625h353.914062c2.832032 0 5.152344 2.320312 5.152344 5.15625zm0 0" fill="#eac092"/><path d="m31.886719 32.09375v-12.160156c0-2.835938 2.316406-5.15625 5.152343-5.15625h-31.886718c-2.835938 0-5.152344 2.320312-5.152344 5.15625v12.160156c0 2.835938 2.316406 5.15625 5.152344 5.15625h31.886718c-2.835937 0-5.152343-2.320312-5.152343-5.15625zm0 0" fill="#e0aa68"/><path d="m397.078125 423.273438h-15.65625v-15h15.65625c1.378906 0 2.5-1.128907 2.5-2.515626 0-1.390624-1.121094-2.519531-2.5-2.519531h-46.316406c-1.378907 0-2.5 1.128907-2.5 2.519531 0 1.386719 1.121093 2.515626 2.5 2.515626h15.660156v15h-15.660156c-9.648438 0-17.5-7.859376-17.5-17.515626 0-9.660156 7.851562-17.519531 17.5-17.519531h46.316406c9.648437 0 17.5 7.859375 17.5 17.519531 0 9.65625-7.851563 17.515626-17.5 17.515626zm0 0" fill="#6d6e71"/><path d="m274.117188 388.238281h-46.316407c-9.648437 0-17.5 7.859375-17.5 17.519531 0 9.65625 7.851563 17.515626 17.5 17.515626h15.660157v-15h-15.660157c-1.375 0-2.5-1.128907-2.5-2.515626 0-1.390624 1.125-2.519531 2.5-2.519531h46.316407c1.378906 0 2.503906 1.128907 2.503906 2.519531 0 1.386719-1.125 2.515626-2.503906 2.515626h-15.65625v15h15.65625c9.652343 0 17.503906-7.859376 17.503906-17.515626 0-9.660156-7.851563-17.519531-17.503906-17.519531zm0 0" fill="#6d6e71"/><path d="m151.160156 388.238281h-46.316406c-9.648438 0-17.5 7.859375-17.5 17.519531 0 9.65625 7.851562 17.515626 17.5 17.515626h15.660156v-15h-15.660156c-1.378906 0-2.5-1.128907-2.5-2.515626 0-1.390624 1.121094-2.519531 2.5-2.519531h46.316406c1.378906 0 2.5 1.128907 2.5 2.519531 0 1.386719-1.121094 2.515626-2.5 2.515626h-15.65625v15h15.65625c9.648438 0 17.5-7.859376 17.5-17.515626 0-9.660156-7.851562-17.519531-17.5-17.519531zm0 0" fill="#6d6e71"/></svg>