<svg id="Capa_1" enable-background="new 0 0 512 512" height="512" viewBox="0 0 512 512" width="512" xmlns="http://www.w3.org/2000/svg"><g><path d="m512 256c0 51.33-15.11 99.14-41.13 139.21-6.08 9.38-12.77-4.946-20 3.523-46.94 55.07-116.83 89.99-194.87 89.99s-147.93-34.92-194.87-89.99c-7.23-8.47-13.92 5.856-20-3.523-26.02-40.07-41.13-87.88-41.13-139.21s15.11-99.14 41.13-139.21c6.45-9.94 13.57-19.4 21.31-28.32 3.83-4.43 7.81-8.729 11.95-12.88 7.78-7.83 16.07-15.17 24.8-21.95 43.32-33.62 97.73-53.64 156.81-53.64s113.49 20.02 156.81 53.64c8.73 6.78 17.02 14.12 24.8 21.95 4.14 4.15 8.12 8.45 11.95 12.88 7.74 8.92 14.86 18.38 21.31 28.32 26.02 40.07 41.13 87.88 41.13 139.21z" fill="#9bd069"/><g><path d="m96.957.5c-5.737 0-10.389 4.651-10.389 10.388v63.739c0 5.737 4.651 10.388 10.388 10.388 5.737 0 10.388-4.651 10.388-10.388v-63.738c.002-5.738-4.649-10.389-10.387-10.389z" fill="#f1f4f6"/><path d="m102.159 83.628c-1.53.88-3.3 1.39-5.2 1.39-5.74 0-10.39-4.66-10.39-10.39v-63.74c0-5.74 4.65-10.39 10.39-10.39 1.9 0 3.67.51 5.2 1.39-3.11 1.79-5.2 5.15-5.2 9v63.74c0 3.84 2.09 7.2 5.2 9z" fill="#d0e2e7"/></g><g><path d="m142.398.5c-5.737 0-10.389 4.651-10.389 10.388v63.739c0 5.737 4.651 10.388 10.388 10.388 5.737 0 10.388-4.651 10.388-10.388v-63.738c.001-5.738-4.65-10.389-10.387-10.389z" fill="#f1f4f6"/><path d="m147.6 83.628c-1.53.88-3.3 1.39-5.2 1.39-5.74 0-10.39-4.66-10.39-10.39v-63.74c0-5.74 4.65-10.39 10.39-10.39 1.9 0 3.67.51 5.2 1.39-3.11 1.79-5.2 5.15-5.2 9v63.74c0 3.84 2.089 7.2 5.2 9z" fill="#d0e2e7"/></g><g><path d="m187.839.5c-5.737 0-10.389 4.651-10.389 10.388v63.739c0 5.737 4.651 10.388 10.388 10.388 5.737 0 10.389-4.651 10.389-10.388v-63.738c0-5.738-4.651-10.389-10.388-10.389z" fill="#f1f4f6"/><path d="m193.04 83.628c-1.53.88-3.3 1.39-5.2 1.39-5.74 0-10.39-4.66-10.39-10.39v-63.74c0-5.74 4.65-10.39 10.39-10.39 1.9 0 3.67.51 5.2 1.39-3.11 1.79-5.2 5.15-5.2 9v63.74c0 3.84 2.09 7.2 5.2 9z" fill="#d0e2e7"/></g><g><path d="m233.28.5c-5.737 0-10.389 4.651-10.389 10.388v63.739c0 5.737 4.651 10.388 10.389 10.388 5.737 0 10.388-4.651 10.388-10.388v-63.738c0-5.738-4.651-10.389-10.388-10.389z" fill="#f1f4f6"/><path d="m238.481 83.628c-1.53.88-3.3 1.39-5.2 1.39-5.74 0-10.39-4.66-10.39-10.39v-63.74c0-5.74 4.65-10.39 10.39-10.39 1.9 0 3.67.51 5.2 1.39-3.11 1.79-5.2 5.15-5.2 9v63.74c0 3.84 2.09 7.2 5.2 9z" fill="#d0e2e7"/></g><g><path d="m278.72.5c-5.737 0-10.389 4.651-10.389 10.388v63.739c0 5.737 4.651 10.388 10.388 10.388 5.737 0 10.388-4.651 10.388-10.388v-63.738c.002-5.738-4.649-10.389-10.387-10.389z" fill="#f1f4f6"/><path d="m283.922 83.628c-1.53.88-3.3 1.39-5.2 1.39-5.74 0-10.39-4.66-10.39-10.39v-63.74c0-5.74 4.65-10.39 10.39-10.39 1.9 0 3.67.51 5.2 1.39-3.11 1.79-5.2 5.15-5.2 9v63.74c0 3.84 2.09 7.2 5.2 9z" fill="#d0e2e7"/></g><g><path d="m324.161.5c-5.737 0-10.388 4.651-10.388 10.388v63.739c0 5.737 4.651 10.388 10.388 10.388 5.737 0 10.389-4.651 10.389-10.388v-63.738c0-5.738-4.651-10.389-10.389-10.389z" fill="#f1f4f6"/><path d="m329.363 83.628c-1.53.88-3.3 1.39-5.2 1.39-5.74 0-10.39-4.66-10.39-10.39v-63.74c0-5.74 4.65-10.39 10.39-10.39 1.9 0 3.67.51 5.2 1.39-3.11 1.79-5.2 5.15-5.2 9v63.74c0 3.84 2.09 7.2 5.2 9z" fill="#d0e2e7"/></g><g><path d="m369.602.5c-5.737 0-10.389 4.651-10.389 10.388v63.739c0 5.737 4.651 10.388 10.389 10.388 5.737 0 10.388-4.651 10.388-10.388v-63.738c.001-5.738-4.651-10.389-10.388-10.389z" fill="#f1f4f6"/><path d="m374.804 83.628c-1.53.88-3.3 1.39-5.2 1.39-5.74 0-10.39-4.66-10.39-10.39v-63.74c0-5.74 4.65-10.39 10.39-10.39 1.9 0 3.67.51 5.2 1.39-3.11 1.79-5.2 5.15-5.2 9v63.74c0 3.84 2.09 7.2 5.2 9z" fill="#d0e2e7"/></g><g><path d="m415.043.5c-5.737 0-10.389 4.651-10.389 10.388v63.739c0 5.737 4.651 10.388 10.388 10.388 5.737 0 10.388-4.651 10.388-10.388v-63.738c.001-5.738-4.65-10.389-10.387-10.389z" fill="#f1f4f6"/><path d="m420.244 83.628c-1.53.88-3.3 1.39-5.2 1.39-5.74 0-10.39-4.66-10.39-10.39v-63.74c0-5.74 4.65-10.39 10.39-10.39 1.9 0 3.67.51 5.2 1.39-3.11 1.79-5.2 5.15-5.2 9v63.74c0 3.84 2.09 7.2 5.2 9z" fill="#d0e2e7"/></g><g><path d="m460.484.5c-5.737 0-10.389 4.651-10.389 10.388v63.739c0 5.737 4.651 10.388 10.388 10.388 5.737 0 10.388-4.651 10.388-10.388v-63.738c.001-5.738-4.65-10.389-10.387-10.389z" fill="#f1f4f6"/><path d="m465.685 83.628c-1.53.88-3.3 1.39-5.2 1.39-5.74 0-10.39-4.66-10.39-10.39v-63.74c0-5.74 4.65-10.39 10.39-10.39 1.9 0 3.67.51 5.2 1.39-3.11 1.79-5.2 5.15-5.2 9v63.74c0 3.84 2.09 7.2 5.2 9z" fill="#d0e2e7"/></g><g><path d="m51.516.5c-5.737 0-10.389 4.651-10.389 10.388v43.25c0 5.737 4.651 30.877 10.388 30.877 5.737 0 10.388-4.651 10.388-10.388v-63.738c.002-5.738-4.649-10.389-10.387-10.389z" fill="#f1f4f6"/><path d="m56.718 83.628c-1.53.88-3.3 1.39-5.2 1.39-5.74 0-10.39-25.15-10.39-30.88v-43.25c0-5.74 4.65-10.39 10.39-10.39 1.9 0 3.67.51 5.2 1.39-3.11 1.79-5.2 5.15-5.2 9v63.74c0 3.84 2.09 7.2 5.2 9z" fill="#d0e2e7"/></g><path d="m470.87 53.64v341.57c-45.63 70.29-124.82 116.79-214.87 116.79s-169.24-46.5-214.87-116.79v-341.57z" fill="#d82e3d"/><path d="m450.87 96.02v325.99c-46.94 55.07-116.83 89.99-194.87 89.99s-147.93-34.92-194.87-89.99v-325.99c0-2.65.46-5.19 1.31-7.55 2.05-5.75 6.4-10.41 11.95-12.88 2.78-1.26 5.87-1.95 9.12-1.95h344.98c3.25 0 6.34.69 9.12 1.95 5.55 2.47 9.9 7.13 11.95 12.88.85 2.36 1.31 4.9 1.31 7.55z" fill="#dd636e"/><path d="m256 479.942c-3.839 0-7.678-1.464-10.606-4.394l-160.658-160.657c-5.858-5.858-5.858-15.355 0-21.213l160.657-160.658c2.813-2.813 6.628-4.394 10.606-4.394s7.794 1.581 10.606 4.394l160.657 160.658c5.858 5.858 5.858 15.355 0 21.213l-160.656 160.657c-2.928 2.93-6.767 4.394-10.606 4.394zm-139.444-175.657 139.444 139.444 139.444-139.444-139.444-139.445z" fill="#d82e3d"/><path d="m256 392.893c-3.839 0-7.678-1.464-10.606-4.394l-73.608-73.608c-2.813-2.813-4.394-6.628-4.394-10.606 0-3.979 1.58-7.793 4.394-10.606l73.608-73.608c5.857-5.858 15.355-5.858 21.213 0l73.608 73.608c2.813 2.813 4.394 6.628 4.394 10.606s-1.58 7.793-4.394 10.606l-73.608 73.608c-2.929 2.929-6.768 4.394-10.607 4.394z" fill="#c32430"/><path d="m256 334.07c-1.29 0-2.581-.492-3.565-1.477l-24.743-24.743c-.946-.946-1.477-2.228-1.477-3.565s.531-2.62 1.477-3.565l24.743-24.743c1.969-1.969 5.162-1.969 7.131 0l24.743 24.743c.946.946 1.477 2.228 1.477 3.565s-.531 2.62-1.477 3.565l-24.743 24.743c-.985.985-2.276 1.477-3.566 1.477z" fill="#d82e3d"/><g fill="#c32430"><path d="m170.495 478.323c-3.839 0-7.678-1.464-10.606-4.394l-73.538-73.538c-5.858-5.858-5.858-15.355 0-21.213 5.857-5.858 15.355-5.858 21.213 0l73.538 73.538c5.858 5.858 5.858 15.355 0 21.213-2.929 2.929-6.768 4.394-10.607 4.394z"/><path d="m415.043 233.775c-3.839 0-7.678-1.464-10.606-4.394l-73.538-73.538c-5.858-5.858-5.858-15.355 0-21.213 5.857-5.858 15.355-5.858 21.213 0l73.538 73.538c5.858 5.858 5.858 15.355 0 21.213-2.929 2.93-6.768 4.394-10.607 4.394z"/><path d="m96.957 233.775c-3.839 0-7.678-1.464-10.606-4.394-5.858-5.858-5.858-15.355 0-21.213l73.538-73.538c5.857-5.858 15.355-5.858 21.213 0s5.858 15.355 0 21.213l-73.538 73.538c-2.929 2.93-6.768 4.394-10.607 4.394z"/><path d="m341.505 478.323c-3.839 0-7.678-1.464-10.606-4.394-5.858-5.858-5.858-15.355 0-21.213l73.538-73.538c5.857-5.858 15.355-5.858 21.213 0s5.858 15.355 0 21.213l-73.538 73.538c-2.929 2.929-6.768 4.394-10.607 4.394z"/></g><g fill="#d82e3d"><g><path d="m406.122 150.132c-8.284 0-15-6.716-15-15v-38.618c0-8.284 6.716-15 15-15s15 6.716 15 15v38.619c0 8.284-6.716 14.999-15 14.999z"/><path d="m425.432 130.823h-38.619c-8.284 0-15-6.716-15-15s6.716-15 15-15h38.619c8.284 0 15 6.716 15 15s-6.716 15-15 15z"/></g><g><path d="m105.878 150.132c-8.284 0-15-6.716-15-15v-38.618c0-8.284 6.716-15 15-15s15 6.716 15 15v38.619c0 8.284-6.716 14.999-15 14.999z"/><path d="m125.188 130.823h-38.62c-8.284 0-15-6.716-15-15s6.716-15 15-15h38.619c8.284 0 15 6.716 15 15s-6.715 15-14.999 15z"/></g></g></g></svg>