<?xml version="1.0" encoding="iso-8859-1"?>
<!-- Generator: Adobe Illustrator 18.0.0, SVG Export Plug-In . SVG Version: 6.00 Build 0)  -->
<!DOCTYPE svg PUBLIC "-//W3C//DTD SVG 1.1//EN" "http://www.w3.org/Graphics/SVG/1.1/DTD/svg11.dtd">
<svg version="1.1" id="Capa_1" xmlns="http://www.w3.org/2000/svg" xmlns:xlink="http://www.w3.org/1999/xlink" x="0px" y="0px"
	 viewBox="0 0 60 60" style="enable-background:new 0 0 60 60;" xml:space="preserve">
<g>
	<path d="M44.586,14l14-14H15c-0.134,0-0.264,0.027-0.385,0.078c-0.121,0.051-0.231,0.124-0.322,0.216L0.586,14H44.586z"/>
	<path d="M46,15.414v44l13.707-13.707c0.092-0.091,0.165-0.201,0.216-0.322C59.973,45.264,60,45.134,60,45V1.414L46,15.414z M51,46
		h-2c-0.552,0-1-0.448-1-1s0.448-1,1-1h2c0.552,0,1,0.448,1,1S51.552,46,51,46z M57,46h-2c-0.552,0-1-0.448-1-1s0.448-1,1-1h2
		c0.552,0,1,0.448,1,1S57.552,46,57,46z"/>
	<path d="M44,16H0v43c0,0.13,0.027,0.26,0.077,0.382c0.101,0.244,0.296,0.439,0.541,0.541C0.74,59.973,0.87,60,1,60h43V16z M14,20
		c0-0.552,0.448-1,1-1s1,0.448,1,1v2c0,0.552-0.448,1-1,1s-1-0.448-1-1V20z M14,26c0-0.552,0.448-1,1-1s1,0.448,1,1v2
		c0,0.552-0.448,1-1,1s-1-0.448-1-1V26z M14,32c0-0.552,0.448-1,1-1s1,0.448,1,1v2c0,0.552-0.448,1-1,1s-1-0.448-1-1V32z M14,38
		c0-0.552,0.448-1,1-1s1,0.448,1,1v2c0,0.552-0.448,1-1,1s-1-0.448-1-1V38z M7.134,54.28l-1.573,1.573
		c-0.195,0.195-0.451,0.293-0.707,0.293s-0.512-0.098-0.707-0.293c-0.391-0.391-0.391-1.023,0-1.414l1.573-1.573
		c0.391-0.391,1.023-0.391,1.414,0S7.524,53.89,7.134,54.28z M11.854,49.561l-1.573,1.573c-0.195,0.195-0.451,0.293-0.707,0.293
		s-0.512-0.098-0.707-0.293c-0.391-0.391-0.391-1.023,0-1.414l1.573-1.573c0.391-0.391,1.023-0.391,1.414,0
		S12.244,49.17,11.854,49.561z M16,46h-0.586L15,46.414c-0.195,0.195-0.451,0.293-0.707,0.293s-0.512-0.098-0.707-0.293
		c-0.391-0.391-0.391-1.023,0-1.414L14,44.586V44c0-0.552,0.448-1,1-1s1,0.448,1,1c0.552,0,1,0.448,1,1S16.552,46,16,46z M22,46h-2
		c-0.552,0-1-0.448-1-1s0.448-1,1-1h2c0.552,0,1,0.448,1,1S22.552,46,22,46z M28,46h-2c-0.552,0-1-0.448-1-1s0.448-1,1-1h2
		c0.552,0,1,0.448,1,1S28.552,46,28,46z M34,46h-2c-0.552,0-1-0.448-1-1s0.448-1,1-1h2c0.552,0,1,0.448,1,1S34.552,46,34,46z M40,46
		h-2c-0.552,0-1-0.448-1-1s0.448-1,1-1h2c0.552,0,1,0.448,1,1S40.552,46,40,46z"/>
</g>
<g>
</g>
<g>
</g>
<g>
</g>
<g>
</g>
<g>
</g>
<g>
</g>
<g>
</g>
<g>
</g>
<g>
</g>
<g>
</g>
<g>
</g>
<g>
</g>
<g>
</g>
<g>
</g>
<g>
</g>
</svg>
