<svg id="Capa_1" enable-background="new 0 0 512 512" height="512" viewBox="0 0 512 512" width="512" xmlns="http://www.w3.org/2000/svg"><g><g><g><g><g><g><circle cx="256" cy="256" fill="#606aea" r="256"/></g></g></g></g></g><path d="m512 256c0-17.238-1.704-34.078-4.952-50.36l-80.121-80.121-7.552 22.209-40.453-40.453-55.441 158.775-158.776-158.776-79.632 298.452 94.749 94.749c24.063 7.49 49.649 11.525 76.178 11.525 141.385 0 256-114.615 256-256z" fill="#4855b7"/><g><path d="m426.927 405.726h-341.854v-210.381l170.71-7.649 171.144 7.907z" fill="#fff"/></g><g><path d="m426.927 194.478-170.927-19.044v230.292h170.927z" fill="#e9edf5"/></g><g><path d="m85.073 125.518h341.853v70.208h-341.853z" fill="#ff583e"/></g><g><path d="m256 125.518h170.927v70.208h-170.927z" fill="#f92814"/></g><g><g><circle cx="138.476" cy="235.168" fill="#bfe1ff" r="20.832"/></g><g><circle cx="197.238" cy="235.168" fill="#bfe1ff" r="20.832"/></g><g fill="#bfe1ff"><path d="m256 214.337v41.663c11.505 0 20.832-9.327 20.832-20.832 0-11.504-9.327-20.831-20.832-20.831z"/><path d="m235.169 235.169c0 11.505 9.327 20.832 20.832 20.832v-41.663c-11.506-.001-20.832 9.326-20.832 20.831z"/></g><g><circle cx="314.762" cy="235.168" fill="#87c7ff" r="20.832"/></g><g><circle cx="373.524" cy="235.168" fill="#87c7ff" r="20.832"/></g></g><g><g><circle cx="138.476" cy="295.443" fill="#bfe1ff" r="20.832"/></g><g><circle cx="197.238" cy="295.443" fill="#bfe1ff" r="20.832"/></g><g fill="#bfe1ff"><path d="m235.169 295.443c0 11.505 9.327 20.832 20.832 20.832v-41.663c-11.506-.001-20.832 9.326-20.832 20.831z"/><path d="m256 274.611v41.663c11.505 0 20.832-9.327 20.832-20.832s-9.327-20.831-20.832-20.831z"/></g><g><circle cx="314.762" cy="295.443" fill="#ffce00" r="20.832"/></g><g><circle cx="373.524" cy="295.443" fill="#87c7ff" r="20.832"/></g></g><g><g><circle cx="138.476" cy="355.717" fill="#bfe1ff" r="20.832"/></g><g><circle cx="197.238" cy="355.717" fill="#bfe1ff" r="20.832"/></g><g><circle cx="256" cy="355.717" fill="#bfe1ff" r="20.832"/></g><g><path d="m256 214.337v41.663c11.505 0 20.832-9.327 20.832-20.832 0-11.504-9.327-20.831-20.832-20.831z" fill="#87c7ff"/></g><g><path d="m256 274.611v41.663c11.505 0 20.832-9.327 20.832-20.832s-9.327-20.831-20.832-20.831z" fill="#87c7ff"/></g><g><path d="m256 334.885v41.663c11.505 0 20.832-9.327 20.832-20.832s-9.327-20.831-20.832-20.831z" fill="#87c7ff"/></g><g><circle cx="314.762" cy="355.717" fill="#87c7ff" r="20.832"/></g><g><circle cx="373.524" cy="355.717" fill="#87c7ff" r="20.832"/></g></g><g><g><path d="m133.078 107.274h31.627v48.217h-31.627z" fill="#fff"/></g><g><path d="m347.295 107.274h31.627v48.217h-31.627z" fill="#e9edf5"/></g></g></g></svg>