<?xml version="1.0" encoding="iso-8859-1"?>
<!-- Generator: Adobe Illustrator 19.0.0, SVG Export Plug-In . SVG Version: 6.00 Build 0)  -->
<svg version="1.1" id="Capa_1" xmlns="http://www.w3.org/2000/svg" xmlns:xlink="http://www.w3.org/1999/xlink" x="0px" y="0px"
	 viewBox="0 0 512.001 512.001" style="enable-background:new 0 0 512.001 512.001;" xml:space="preserve">
<path style="fill:#FFD561;" d="M456,461H56c-8.284,0-15-6.716-15-15V256c0-8.284,6.716-15,15-15h400c8.284,0,15,6.716,15,15v190
	C471,454.284,464.284,461,456,461z"/>
<g>
	<path style="fill:#FFB23D;" d="M456,241H256v220h200c8.284,0,15-6.716,15-15V256C471,247.716,464.284,241,456,241z"/>
	<path style="fill:#FFB23D;" d="M306,461H206V306c0-8.284,6.716-15,15-15h70c8.284,0,15,6.716,15,15V461z"/>
</g>
<path style="fill:#F57D00;" d="M306,306c0-8.284-6.716-15-15-15h-35v170h50V306z"/>
<g>
	<path style="fill:#FFB23D;" d="M166,411h-60c-8.284,0-15-6.716-15-15v-90c0-8.284,6.716-15,15-15h60c8.284,0,15,6.716,15,15v90
		C181,404.284,174.284,411,166,411z"/>
	<path style="fill:#FFB23D;" d="M180.252,91h-60c-8.284,0-15-6.716-15-15V15c0-8.284,6.716-15,15-15h60c8.284,0,15,6.716,15,15v61
		C195.252,84.284,188.536,91,180.252,91z"/>
</g>
<path style="fill:#FFA208;" d="M195.252,30h-90c-8.284,0-15-6.716-15-15s6.716-15,15-15h90c8.284,0,15,6.716,15,15
	S203.536,30,195.252,30z"/>
<path style="fill:#FF7560;" d="M497,271H15c-4.723,0-9.17-2.225-12.003-6.004c-2.833-3.78-3.72-8.672-2.394-13.206l52.632-180
	C55.105,65.395,60.969,61,67.632,61h376.735c6.663,0,12.527,4.395,14.397,10.79l52.632,180c1.326,4.534,0.439,9.426-2.394,13.206
	C506.171,268.775,501.723,271,497,271z"/>
<path style="fill:#C97E67;" d="M497,512H15c-8.284,0-15-6.716-15-15v-51c0-8.284,6.716-15,15-15h482c8.284,0,15,6.716,15,15v51
	C512,505.284,505.284,512,497,512z"/>
<polygon style="fill:#FE5947;" points="21.302,181 490.698,181 481.926,151 30.074,151 "/>
<path style="fill:#F57D00;" d="M406,411h-60c-8.284,0-15-6.716-15-15v-90c0-8.284,6.716-15,15-15h60c8.284,0,15,6.716,15,15v90
	C421,404.284,414.284,411,406,411z"/>
<path style="fill:#FE5947;" d="M511.397,251.79l-52.632-180c-1.87-6.395-7.734-10.79-14.397-10.79H256v210h241
	c4.723,0,9.17-2.225,12.003-6.004C511.836,261.216,512.723,256.324,511.397,251.79z"/>
<path style="fill:#AC6A55;" d="M497,431H256v81h241c8.284,0,15-6.716,15-15v-51C512,437.716,505.284,431,497,431z"/>
<polygon style="fill:#E31B1B;" points="481.926,151 256,151 256,181 490.698,181 "/>
<g>
</g>
<g>
</g>
<g>
</g>
<g>
</g>
<g>
</g>
<g>
</g>
<g>
</g>
<g>
</g>
<g>
</g>
<g>
</g>
<g>
</g>
<g>
</g>
<g>
</g>
<g>
</g>
<g>
</g>
</svg>
