<svg id="Layer_5" enable-background="new 0 0 64 64" height="512" viewBox="0 0 64 64" width="512" xmlns="http://www.w3.org/2000/svg"><g><g><g><path d="m6 56h6v6h-6z" fill="#d3a06c"/></g><g><path d="m6 46h6v6h-6z" fill="#d3a06c"/></g><g><path d="m6 36h6v6h-6z" fill="#d3a06c"/></g><g><path d="m6 26h6v6h-6z" fill="#d3a06c"/></g><g><path d="m12 16v6h-6v-6h1 4z" fill="#d3a06c"/></g><g><path d="m6 56v6h-4v-46h4v6 4 6 4 6 4 6z" fill="#dfb28b"/></g><g><path d="m28 16v16h-8v10h-4v6 14h-4v-6-4-6-4-6-4-6-4-6h3 4 4z" fill="#dfb28b"/></g><g><path d="m6 22h6v4h-6z" fill="#b27946"/></g><g><path d="m6 32h6v4h-6z" fill="#b27946"/></g><g><path d="m6 42h6v4h-6z" fill="#b27946"/></g><g><path d="m6 52h6v4h-6z" fill="#b27946"/></g><g><path d="m16 20h8v8h-8z" fill="#69d6f4"/></g><g><path d="m62 44v6h-14v-2-4h3 8z" fill="#ccd1d9"/></g><g><path d="m48 44v4h-4-10-4-10-4v-6h4 4 6 4 6 4 4z" fill="#aab2bd"/></g><g><path d="m16 48h4v14h-4z" fill="#ccd1d9"/></g><g><path d="m30 48h4v14h-4z" fill="#ccd1d9"/></g><g><path d="m48 50v12h-4v-14h4z" fill="#ccd1d9"/></g><g><path d="m48 50h14v12h-14z" fill="#e6e9ed"/></g><g><path d="m52 54h6v8h-6z" fill="#aab2bd"/></g><g><path d="m58 20 1 24h-8l1-24z" fill="#fcd770"/></g><g><path d="m32 16h8v16h-8z" fill="#ccd1d9"/></g><g><path d="m32 12h8v4h-8z" fill="#aab2bd"/></g><g><path d="m20 32h24v10h-24z" fill="#e6e9ed"/></g><g><path d="m24 36h6v6h-6z" fill="#b27946"/></g><g><path d="m34 36h6v6h-6z" fill="#b27946"/></g></g><g><path d="m25 19h-10v10h10zm-2 8h-6v-6h6z"/><path d="m58.959 19h-7.918l-1 24h-1.041v-2h-4v-10h-4v-20h-10v20h-2v-16h-5v-6h2v-2h-22v2h2v6h-5v48h62v-20h-3.041zm-53.959 42h-2v-44h2zm47.959-40h4.082l.917 22h-5.915zm-19.959-8h6v2h-6zm0 4h6v14h-6zm10 16v8h-2v-6h-8v6h-2v-6h-8v6h-2v-8zm-4 4v4h-4v-4zm-10 0v4h-4v-4zm-9-28h2v6h-2zm-4 0h2v6h-2zm-8 0h2v6h-2zm3 52h-4v-4h4zm0-6h-4v-2h4zm0-4h-4v-4h4zm0-6h-4v-2h4zm0-4h-4v-4h4zm0-6h-4v-2h4zm0-4h-4v-4h4zm0-6h-4v-2h4zm0-4h-4v-4h4zm1-12h2v6h-2zm3 52h-2v-44h14v14h-8v10h-4zm4 0h-2v-12h2zm4.771-6-2.771 3.88v-7.76zm-1.828-6h6.114l-3.057 4.28zm0 12 3.057-4.28 3.057 4.28zm7.057-2.12-2.771-3.88 2.771-3.88zm4 2.12h-2v-12h2zm4.771-6-2.771 3.88v-7.76zm-1.828-6h6.114l-3.057 4.28zm0 12 3.057-4.28 3.057 4.28zm7.057-2.12-2.771-3.88 2.771-3.88zm4 2.12h-2v-12h2zm0-14h-30v-4h30zm10 14h-4v-6h4zm4 0h-2v-8h-8v8h-2v-10h12zm0-12h-12v-4h12z"/><path d="m31 7h3c.552 0 1 .449 1 1v1h2v-1c0-1.654-1.346-3-3-3h-3c-.552 0-1-.449-1-1s.448-1 1-1h11v-2h-11c-1.654 0-3 1.346-3 3s1.346 3 3 3z"/><path d="m53 11h7c.552 0 1 .449 1 1s-.448 1-1 1h-1c-1.654 0-3 1.346-3 3v1h2v-1c0-.551.448-1 1-1h1c1.654 0 3-1.346 3-3s-1.346-3-3-3h-7z"/><path d="m50 15h1c.552 0 1 .449 1 1v1h2v-1c0-1.654-1.346-3-3-3h-1c-1.654 0-3-1.346-3-3s1.346-3 3-3h8v-2h-8c-2.757 0-5 2.243-5 5s2.243 5 5 5z"/></g></g></svg>