<svg height="512pt" viewBox="0 -4 512 512" width="512pt" xmlns="http://www.w3.org/2000/svg"><path d="m307.199219 179.199219h-17.066407c-4.710937 0-8.53125-3.820313-8.53125-8.53125 0-4.714844 3.820313-8.535157 8.53125-8.535157h17.066407c4.714843 0 8.535156 3.820313 8.535156 8.535157 0 4.710937-3.820313 8.53125-8.535156 8.53125zm0 0" fill="#fac176"/><path d="m213.332031 264.535156h-17.066406c-4.710937 0-8.53125-3.824218-8.53125-8.535156s3.820313-8.535156 8.53125-8.535156h17.066406c4.714844 0 8.535157 3.824218 8.535157 8.535156s-3.820313 8.535156-8.535157 8.535156zm0 0" fill="#fac176"/><path d="m119.464844 349.867188h-17.066406c-4.710938 0-8.53125-3.820313-8.53125-8.535157 0-4.710937 3.820312-8.53125 8.53125-8.53125h17.066406c4.714844 0 8.535156 3.820313 8.535156 8.53125 0 4.714844-3.820312 8.535157-8.535156 8.535157zm0 0" fill="#fac176"/><path d="m25.601562 435.199219h-17.066406c-4.714844 0-8.535156-3.820313-8.535156-8.53125 0-4.714844 3.820312-8.535157 8.535156-8.535157h17.066406c4.710938 0 8.53125 3.820313 8.53125 8.535157 0 4.710937-3.820312 8.53125-8.53125 8.53125zm0 0" fill="#fac176"/><g fill="#bdc3c7"><path d="m68.265625 426.667969c-4.710937 0-8.53125-3.820313-8.53125-8.535157v-221.867187c0-4.710937 3.820313-8.53125 8.53125-8.53125 4.714844 0 8.535156 3.820313 8.535156 8.53125v221.867187c0 4.714844-3.820312 8.535157-8.535156 8.535157zm0 0"/><path d="m162.132812 341.332031c-4.710937 0-8.53125-3.820312-8.53125-8.53125v-221.867187c0-4.714844 3.820313-8.535156 8.53125-8.535156 4.714844 0 8.535157 3.820312 8.535157 8.535156v221.867187c0 4.710938-3.820313 8.53125-8.535157 8.53125zm0 0"/><path d="m256 256c-4.710938 0-8.535156-3.820312-8.535156-8.535156v-221.863282c0-4.714843 3.824218-8.535156 8.535156-8.535156s8.535156 3.820313 8.535156 8.535156v221.863282c0 4.714844-3.824218 8.535156-8.535156 8.535156zm0 0"/><path d="m349.867188 170.667969c-4.714844 0-8.535157-3.820313-8.535157-8.535157v-153.597656c0-4.714844 3.820313-8.535156 8.535157-8.535156 4.710937 0 8.53125 3.820312 8.53125 8.535156v153.597656c0 4.714844-3.820313 8.535157-8.53125 8.535157zm0 0"/><path d="m435.199219 170.667969c-4.710938 0-8.53125-3.820313-8.53125-8.535157v-153.597656c0-4.714844 3.820312-8.535156 8.53125-8.535156 4.714843 0 8.535156 3.820312 8.535156 8.535156v153.597656c0 4.714844-3.820313 8.535157-8.535156 8.535157zm0 0"/></g><path d="m503.464844 170.667969v324.265625c0 4.710937-3.820313 8.53125-8.53125 8.53125h-460.800782c-4.710937 0-8.53125-3.820313-8.53125-8.53125v-76.800782h76.796876c9.425781 0 17.066406-7.640624 17.066406-17.066406v-68.265625h76.800781c9.425781 0 17.066406-7.640625 17.066406-17.066406v-68.269531h76.800781c9.425782 0 17.066407-7.640625 17.066407-17.066406v-68.265626h187.734375c4.710937 0 8.53125 3.820313 8.53125 8.535157zm0 0" fill="#f9eab0"/><path d="m307.199219 384h119.46875c4.710937 0 8.53125 3.820312 8.53125 8.535156v17.066406c0 4.710938-3.820313 8.53125-8.53125 8.53125h-119.46875c-4.710938 0-8.53125-3.820312-8.53125-8.53125v-17.066406c0-4.714844 3.820312-8.535156 8.53125-8.535156zm0 0" fill="#d25627"/><path d="m315.734375 418.132812h102.398437v59.734376c0 14.136718-11.460937 25.597656-25.597656 25.597656h-51.203125c-14.136719 0-25.597656-11.460938-25.597656-25.597656zm0 0" fill="#e57e25"/><path d="m358.996094 384c-24.296875-5.472656-46.28125-18.390625-62.890625-36.949219-14.710938-20.097656-22.769531-44.296875-23.039063-69.207031 24.296875 5.476562 46.28125 18.390625 62.890625 36.949219 3.300781 4.074219 6.214844 8.445312 8.703125 13.058593v.085938c9.105469 17.304688 14.019532 36.507812 14.335938 56.0625zm0 0" fill="#4fba6f"/><path d="m386.476562 366.675781c-3.882812-.011719-7.273437-2.621093-8.277343-6.367187-1.007813-3.75.617187-7.707032 3.96875-9.660156 3.351562-1.957032 7.597656-1.425782 10.367187 1.292968 3.277344 3.339844 3.34375 8.667969.152344 12.089844-1.621094 1.699219-3.867188 2.65625-6.210938 2.644531zm0 0"/><path d="m400.128906 315.820312c-.335937 3.675782-.933594 7.328126-1.792968 10.921876v.085937c-9.480469 17.585937-14.601563 37.195313-14.933594 57.171875h-24.40625c-.316406-19.554688-5.230469-38.757812-14.335938-56.0625v-.085938c-.480468-5.738281-.453125-11.507812.085938-17.238281 3.828125-26.800781 15.976562-51.726562 34.730468-71.253906 14.667969 22.71875 21.886719 49.445313 20.652344 76.460937zm0 0" fill="#24ae5f"/><path d="m446.292969 347.050781c-16.609375 18.558594-38.59375 31.476563-62.890625 36.949219.332031-19.976562 5.453125-39.585938 14.933594-57.171875v-.085937c2.375-4.195313 5.085937-8.191407 8.105468-11.949219 16.609375-18.558594 38.59375-31.472657 62.890625-36.949219-.269531 24.910156-8.324219 49.109375-23.039062 69.207031zm0 0" fill="#4fba6f"/><path d="m384 486.398438h-34.132812c-4.714844 0-8.535157-3.820313-8.535157-8.53125 0-4.714844 3.820313-8.535157 8.535157-8.535157h34.132812c4.710938 0 8.535156 3.820313 8.535156 8.535157 0 4.710937-3.824218 8.53125-8.535156 8.53125zm0 0" fill="#d25627"/><path d="m8.535156 298.667969c-4.714844 0-8.535156-3.820313-8.535156-8.535157v-27.503906c.0117188-12.066406 5.121094-23.570312 14.070312-31.664062l245.972657-222.160156c6.265625-5.671876 14.417969-8.8125005 22.871093-8.804688h220.550782c4.714844 0 8.535156 3.820312 8.535156 8.535156 0 4.710938-3.820312 8.53125-8.535156 8.53125h-220.550782c-4.226562-.003906-8.300781 1.566406-11.433593 4.402344l-245.972657 222.167969c-5.375 4.851562-8.441406 11.753906-8.441406 18.992187v27.503906c0 4.714844-3.820312 8.535157-8.53125 8.535157zm0 0" fill="#cb8252"/></svg>