<svg id="Layer_1" enable-background="new 0 0 512 512" height="512" viewBox="0 0 512 512" width="512" xmlns="http://www.w3.org/2000/svg"><g><g><g><path d="m402.054 306.123h-71.864v22.128l-37.715 39.519-14.744-43.414-21.707 18.826-21.745-18.86-14.755 43.448-37.715-39.519v-22.128h-71.867c-46.618 0-84.409 37.791-84.409 84.409v113.968h460.934v-113.964c0-46.62-37.793-84.413-84.413-84.413z" fill="#e1fd9e"/></g><g><path d="m110.643 306.123h30.025v198.377h-30.025z" fill="#eb975d"/></g><g><path d="m110.643 359.461h30.025v31.651h-30.025z" fill="#fff"/></g><g><path d="m371.382 306.123h30.025v198.377h-30.025z" fill="#eb975d"/></g><g><path d="m371.382 359.461h30.025v31.651h-30.025z" fill="#fff"/></g><g><path d="m181.809 306.123 52.471 18.199-14.755 43.448-37.716-39.519z" fill="#e1fd9e"/></g><g><path d="m330.191 306.123-52.471 18.199 14.755 43.448 37.716-39.519z" fill="#e1fd9e"/></g><g><path d="m277.72 324.322 43.331-15.029v-43.378h-.003l-2.09 2.09c-16.698 16.698-39.344 26.078-62.959 26.078-23.614 0-46.261-9.381-62.958-26.078l-2.092-2.092v43.38l43.33 15.028 21.745 18.86 21.707-18.826-.01-.031z" fill="#ffdaaa"/></g><g><path d="m244.423 251.997h23.153l27.863-20.971-39.439-19.052-39.44 19.053z" fill="#ffdaaa"/></g><g><path d="m195.389 73.457c-5.415 9.853-8.497 21.161-8.497 33.176v102.389l28.566-13.333c6.216-2.901 12.992-4.405 19.852-4.405 11.427 0 20.69 9.263 20.69 20.69 0-11.427 9.263-20.69 20.69-20.69 6.86 0 13.636 1.504 19.852 4.405l28.566 13.332v-102.388c0-12.015-3.082-23.323-8.497-33.176z" fill="#ffdaaa"/></g><g><path d="m325.108 209.021-28.566-13.332c-6.216-2.901-12.992-4.405-19.852-4.405-11.427 0-20.69 9.263-20.69 20.69l39.439 19.053-27.863 20.97h-23.153l-27.863-20.97 39.44-19.053c0-11.427-9.263-20.69-20.69-20.69-6.86 0-13.636 1.504-19.852 4.405l-28.566 13.333v-102.389c0-12.015 3.082-23.323 8.497-33.176-11.772-11.772-31.945-6.131-35.812 10.062-1.771 7.416-2.709 15.156-2.709 23.114v74.041c0 32.756 13.012 64.17 36.174 87.332 16.698 16.698 39.344 26.078 62.958 26.078 23.614 0 46.261-9.381 62.958-26.078 23.162-23.162 36.174-54.576 36.174-87.332v-132.051c0-22.712-18.412-41.123-41.123-41.123h-58.009c-26.446 0-50.473 10.356-68.248 27.233-8.727 8.287-8.976 22.111-.466 30.621l8.103 8.103h120.922c5.607 10.136 8.797 21.792 8.797 34.129z" fill="#eb975d"/></g><g><path d="m139.942 306.123h-30c-46.618 0-84.409 37.791-84.409 84.409v113.968h30v-113.967c0-46.618 37.791-84.41 84.409-84.41z" fill="#55e072"/></g><g><path d="m264.28 324.322-43.331-15.028v-19.987c-1.171 0-30-23.392-30-23.392v43.38l43.33 15.028 21.745 18.86 15-13.01z" fill="#ffb680"/></g><g><path d="m246.56 231.027 24.44-11.807-15-7.246-39.44 19.053 27.863 20.97h23.153l3.424-2.577z" fill="#ffb680"/></g><g><path d="m216.892 106.633c0-12.015 3.082-23.323 8.497-33.176h-30c-5.415 9.853-8.497 21.161-8.497 33.176v102.389l28.566-13.333c.475-.222.953-.435 1.434-.64z" fill="#ffb680"/></g><g><path d="m186.867 106.633c0-7.959.938-15.698 2.709-23.114.982-4.11 3.015-7.54 5.693-10.178-11.788-11.616-31.839-5.96-35.693 10.178-1.771 7.416-2.709 15.156-2.709 23.114v72.397c0 33.809 13.43 66.232 37.337 90.139l3.703 3.703c13.583 13.583 32.005 21.213 51.213 21.213l-42.333-42.333c-12.754-12.754-19.92-30.053-19.92-48.09z" fill="#b25e1e"/></g><g><path d="m195.271 73.339c7.875-7.754 21.335-8.666 30.118.118l-8.103-8.103c-8.51-8.51-8.261-22.334.466-30.621 17.775-16.877 41.802-27.233 68.248-27.233h-30c-26.446 0-50.473 10.356-68.248 27.233-8.727 8.287-8.976 22.111-.466 30.621z" fill="#b25e1e"/></g><g><path d="m296.449 35.933h15.012v15h-15.012z" fill="#fff"/></g><g><path d="m266.425 35.933h15.012v15h-15.012z" fill="#fff"/></g><g><path d="m248.49 420.748h15.018v15h-15.018z" fill="#fff"/></g></g><path d="m248.49 373.343h15.018v15h-15.018z"/><path d="m248.49 468.153h15.018v15h-15.018z"/><path d="m493.967 390.536c0-50.681-41.232-91.913-91.913-91.913h-48.864v15h10.691v183.377h-215.714v-183.377h10.642v-15h-48.867c-50.679 0-91.909 41.23-91.909 91.909v121.468h475.934zm-100.06-6.924h-15.025v-16.651h15.025zm-15.025 15h15.025v98.388h-15.025zm-245.715 98.388h-15.024v-98.388h15.024zm-15.024-130.039h15.024v16.651h-15.024zm-85.11 23.571c0-42.408 34.501-76.909 76.909-76.909h23.225v38.338h-15.024v-22.838h-15v167.877h-70.11zm445.934 106.468h-70.06v-167.877h-15v22.838h-15.025v-38.338h23.172c42.41 0 76.913 34.503 76.913 76.913z"/><path d="m362.633 180.673v-132.05c0-26.81-21.812-48.623-48.623-48.623h-58.01c-27.446 0-53.518 10.403-73.413 29.295-8.774 8.332-11.043 20.582-7.322 30.847-11.435 2.069-20.282 10.326-22.984 21.635-1.934 8.098-2.914 16.46-2.914 24.856v74.04c0 32.915 12.057 63.978 34.082 88.144v29.937l-9.14-3.17v35.672l48.336 50.647 15.148-44.606 18.231 15.812 18.193-15.779 15.137 44.573 48.336-50.647v-35.672l-9.14 3.17v-29.937c22.025-24.166 34.083-55.229 34.083-88.144zm-198.266-74.04c0-7.225.842-14.415 2.504-21.372 2.089-8.746 11.52-12.713 18.985-9.413-4.243 9.66-6.464 20.18-6.464 30.785v114.166l39.237-18.314c5.188-2.421 10.957-3.701 16.681-3.701 5.75 0 10.652 3.698 12.454 8.84l-45.54 22 39.693 29.874h28.166l39.693-29.874-45.539-22c1.802-5.142 6.704-8.84 12.453-8.84 5.724 0 11.492 1.28 16.681 3.701l39.237 18.313v-113.212c0-13.19-3.366-26.247-9.734-37.76l-2.141-3.869h-122.238l-5.906-5.905c-5.543-5.543-5.334-14.504.327-19.88 17.095-16.233 39.499-25.172 63.084-25.172h58.01c18.54 0 33.623 15.083 33.623 33.623v132.05c0 30.987-12.067 60.119-33.978 82.029-31.865 31.865-83.441 31.869-115.311 0-21.911-21.91-33.978-51.042-33.978-82.029v-74.04zm91.633 86.213c-5.153-5.57-12.521-9.063-20.69-9.063-7.901 0-15.863 1.767-23.024 5.109l-17.894 8.352v-90.611c0-8.87 1.93-17.662 5.612-25.676h111.712c3.865 8.305 5.893 17.425 5.893 26.629v89.657l-17.894-8.351c-7.161-3.343-15.123-5.109-23.024-5.109-8.169 0-15.537 3.492-20.691 9.063zm25.102 39.584-16.033 12.067h-18.139l-16.033-12.067 25.103-12.127zm-64.698 121.206-27.094-28.39v-8.584l35.472 12.304zm106.287-28.39-27.094 28.39-8.378-24.67 35.472-12.304zm-54.469-5.569.786 2.316-12.984 11.261-13.022-11.295.775-2.282-45.329-15.721v-21.379c34.015 25.36 81.084 25.362 115.102 0v21.379z"/></g></svg>