<svg height="496pt" viewBox="0 0 496 496" width="496pt" xmlns="http://www.w3.org/2000/svg"><path d="m415.839844 274.878906 45.921875 8.320313c15.199219 2.800781 26.238281 16.082031 26.238281 31.519531v117.28125h-240v-33.121094c2.558594.640625 5.199219 1.121094 8 1.121094 17.679688 0 32-14.320312 32-32s-14.320312-32-32-32c-2.800781 0-5.441406.480469-8 1.121094v-22.402344c0-15.4375 11.039062-28.71875 26.238281-31.519531l45.921875-8.320313zm0 0" fill="#fcd770"/><path d="m376 336 8 48-16 16-16-16 8-48zm0 0" fill="#e6e9ed"/><path d="m390.640625 314.078125-14.640625 21.921875h-16l-14.640625-21.921875 22.640625-18.078125zm0 0" fill="#e6e9ed"/><path d="m390.640625 314.078125-22.640625-18.078125 32-24 15.839844 2.878906-7.839844 53.121094zm0 0" fill="#ffeaa7"/><path d="m345.359375 314.078125-17.359375 13.921875-7.839844-53.121094 15.839844-2.878906 32 24zm0 0" fill="#ffeaa7"/><path d="m175.761719 274.878906 46 8.320313c15.199219 2.800781 26.238281 16.082031 26.238281 31.519531v22.402344c2.558594-.640625 5.199219-1.121094 8-1.121094 17.679688 0 32 14.320312 32 32s-14.320312 32-32 32c-2.800781 0-5.441406-.480469-8-1.121094v33.121094h-240v-117.28125c0-15.4375 11.039062-28.71875 26.238281-31.519531l46-8.320313zm0 0" fill="#e6e9ed"/><path d="m136 336 8 48-16 16-16-16 8-48zm0 0" fill="#ff826e"/><path d="m150.640625 314.078125-14.640625 21.921875h-16l-14.640625-21.921875 22.640625-18.078125zm0 0" fill="#ff826e"/><path d="m150.640625 314.078125-22.640625-18.078125 32-24 15.761719 2.878906-7.761719 53.121094zm0 0" fill="#ccd1d9"/><path d="m105.359375 314.078125-17.359375 13.921875-7.761719-53.121094 15.761719-2.878906 32 24zm0 0" fill="#ccd1d9"/><path d="m456 144v40c0-17.679688-14.320312-32-32-32v8h-12.238281c-23.523438 0-46.722657-5.441406-67.761719-16l-4.71875 4.71875c-7.203125 7.203125-17.042969 11.28125-27.28125 11.28125v-8c-17.679688 0-32 14.320312-32 32v-40c0-48.640625 39.359375-88 88-88 24.320312 0 46.320312 9.839844 62.238281 25.761719 15.921875 15.917969 25.761719 37.917969 25.761719 62.238281zm0 0" fill="#b27946"/><path d="m216 113.28125v70.71875c0-17.679688-14.320312-32-32-32v-16c-4.800781 14.320312-18.160156 24-33.28125 24h-30.71875c-.398438 0-.878906 0-1.28125 0h-30.71875c-.398438 0-.878906 0-1.28125 0h-14.71875v-8c-17.679688 0-32 14.320312-32 32v-51.121094c0-46.878906 38-84.878906 84.878906-84.878906 11.28125 0 22.242188 2.238281 32.480469 6.480469 10.160156 4.238281 19.601563 10.480469 27.519531 18.398437l7.121094 7.121094c7.199219 2.398438 13.121094 6.960938 17.359375 12.800781 4.242187 5.757813 6.640625 12.960938 6.640625 20.480469zm0 0" fill="#fcd770"/><g fill="#f0d0b4"><path d="m368 256c11.601562 0 22.398438-3.519531 31.28125-9.519531l.71875 1.519531v24l-32 24-32-24v-24l.71875-1.519531c23.601562 9.121093 27.441406 9.519531 31.28125 9.519531zm0 0"/><path d="m424 152c17.679688 0 32 14.320312 32 32s-14.320312 32-32 32l-2.160156-.558594c1.441406-4.882812 2.160156-10.082031 2.160156-15.441406zm0 0"/><path d="m424 160v40c0 5.359375-.71875 10.558594-2.160156 15.441406-3.679688 12.796875-11.761719 23.757813-22.558594 31.039063-8.882812 6-19.679688 9.519531-31.28125 9.519531-3.839844 0-7.679688-.398438-31.28125-9.519531-3.039062-2.082031-5.757812-4.320313-8.320312-6.878907-6.636719-6.640624-11.597657-14.882812-14.238282-24.160156-1.441406-4.882812-2.160156-10.082031-2.160156-15.441406v-40c10.238281 0 20.078125-4.078125 27.28125-11.28125l4.71875-4.71875c21.039062 10.558594 44.238281 16 67.761719 16zm0 0"/><path d="m312 160v40c0 5.359375.71875 10.558594 2.160156 15.441406l-2.160156.558594c-17.679688 0-32-14.320312-32-32s14.320312-32 32-32zm0 0"/><path d="m128 256c11.601562 0 22.398438-3.519531 31.28125-9.519531l.71875 1.519531v24l-32 24-32-24v-24l.71875-1.519531c23.601562 9.121093 27.441406 9.519531 31.28125 9.519531zm0 0"/><path d="m184 152c17.679688 0 32 14.320312 32 32s-14.320312 32-32 32l-2.160156-.558594c1.441406-4.882812 2.160156-10.082031 2.160156-15.441406zm0 0"/><path d="m72 160v40c0 5.359375.71875 10.558594 2.160156 15.441406l-2.160156.558594c-17.679688 0-32-14.320312-32-32s14.320312-32 32-32zm0 0"/><path d="m184 152v48c0 5.359375-.71875 10.558594-2.160156 15.441406-3.679688 12.796875-11.761719 23.757813-22.558594 31.039063-8.882812 6-19.679688 9.519531-31.28125 9.519531-3.839844 0-7.679688-.398438-31.28125-9.519531-3.039062-2.082031-5.757812-4.320313-8.320312-6.878907-6.636719-6.640624-11.597657-14.882812-14.238282-24.160156-1.441406-4.882812-2.160156-10.082031-2.160156-15.441406v-40h14.71875 1.28125 30.71875 1.28125 30.71875c15.121094 0 28.480469-9.679688 33.28125-24zm0 0"/></g><path d="m463.160156 275.351562-55.160156-10.03125v-15.441406c8.550781-6.871094 15.28125-15.886718 19.414062-26.222656 20.433594-1.769531 36.585938-18.769531 36.585938-39.65625v-40c0-52.9375-43.0625-96-96-96s-96 43.0625-96 96v40c0 20.886719 16.152344 37.886719 36.585938 39.65625 4.125 10.34375 10.863281 19.351562 19.414062 26.222656v15.441406l-55.167969 10.03125c-10.296875 1.878907-18.960937 7.65625-24.839843 15.558594-5.878907-7.902344-14.542969-13.6875-24.839844-15.558594l-55.152344-10.03125v-15.441406c8.550781-6.871094 15.28125-15.886718 19.414062-26.222656 20.433594-1.769531 36.585938-18.769531 36.585938-39.65625v-70.703125c0-17.914063-11.015625-33.832031-27.609375-40.21875l-5.878906-5.878906c-17.542969-17.542969-40.855469-27.199219-65.664063-27.199219-51.191406 0-92.847656 41.65625-92.847656 92.847656v51.152344c0 20.886719 16.152344 37.886719 36.585938 39.65625 4.125 10.34375 10.863281 19.351562 19.414062 26.222656v15.441406l-55.167969 10.03125c-19.015625 3.472657-32.832031 20.015626-32.832031 39.351563v125.296875h496v-125.296875c0-19.335937-13.816406-35.878906-32.839844-39.351563zm-87.726562 105.90625-7.433594 7.429688-7.433594-7.429688 6.210938-37.257812h2.445312zm-41.433594-100.761718 20.9375 15.703125-21.289062 17.03125-5.289063-31.710938zm37.71875 47.503906h-7.4375l-8.167969-12.246094 11.886719-9.507812 11.878906 9.507812zm9.34375-31.800781 20.9375-15.703125 5.640625 1.023437-5.289063 31.710938zm50.59375-89.566407c.222656-2.175781.34375-4.394531.34375-6.632812v-38.527344c9.289062 3.3125 16 12.113282 16 22.527344 0 10.542969-6.878906 19.414062-16.34375 22.632812zm-63.65625-142.632812c44.113281 0 80 35.886719 80 80v8.207031c-4.671875-3.535156-10.054688-6.183593-16-7.390625v-16.816406h-16v24h-4.222656c-22.167969 0-44.371094-5.238281-64.191406-15.160156l-5.160157-2.574219-8.769531 8.765625c-3.777344 3.777344-8.550781 6.351562-13.65625 7.753906v-22.785156h-16v16.808594c-5.945312 1.214844-11.328125 3.855468-16 7.390625v-8.199219c0-44.113281 35.886719-80 80-80zm-80 120c0-10.414062 6.710938-19.214844 16-22.527344v38.527344c0 2.238281.121094 4.457031.34375 6.632812-9.464844-3.21875-16.34375-12.089843-16.34375-22.632812zm32 16v-32.742188c9.375-1.65625 18.191406-6.136718 24.96875-12.914062l.6875-.6875c20.679688 9.398438 43.414062 14.34375 66.121094 14.34375h4.222656v32c0 26.472656-21.527344 48-48 48s-48-21.527344-48-48zm48 64c8.488281 0 16.585938-1.695312 24-4.710938v8.710938l-24 18-24-18v-8.710938c7.414062 3.015626 15.511719 4.710938 24 4.710938zm-232.566406 117.257812-7.433594 7.429688-7.433594-7.429688 6.210938-37.257812h2.445312zm-41.433594-100.761718 20.9375 15.703125-21.289062 17.03125-5.289063-31.710938zm37.71875 47.503906h-7.4375l-8.167969-12.246094 11.886719-9.507812 11.878906 9.507812zm9.34375-31.800781 20.9375-15.703125 5.640625 1.023437-5.289063 31.710938zm50.59375-89.566407c.222656-2.175781.34375-4.394531.34375-6.632812v-38.527344c9.289062 3.3125 16 12.113282 16 22.527344 0 10.542969-6.878906 19.414062-16.34375 22.632812zm-66.808594-150.632812c20.527344 0 39.832032 7.992188 54.34375 22.503906l8.488282 8.488282 1.792968.59375c11.078125 3.703124 18.527344 14.03125 18.527344 25.710937v38.902344c-4.671875-3.535157-10.054688-6.183594-16-7.390625v-16.808594h-16v6.449219c-3.800781 10.054687-13.105469 16.847656-23.808594 17.4375 3.152344-3.917969 5.730469-8.367188 7.394532-13.351563l-15.171876-5.0625c-3.542968 10.605469-13.167968 17.800782-24.214843 18.414063 3.152343-3.917969 5.730469-8.367188 7.394531-13.351563l-15.167969-5.0625c-3.714843 11.078125-14.042969 18.527344-25.722656 18.527344h-6.703125v-24h-16v16.808594c-5.945312 1.214844-11.328125 3.855468-16 7.390625v-19.351563c0-42.367187 34.480469-76.847656 76.847656-76.847656zm-76.847656 128c0-10.414062 6.710938-19.214844 16-22.527344v38.527344c0 2.238281.121094 4.457031.34375 6.632812-9.464844-3.21875-16.34375-12.089843-16.34375-22.632812zm32 16v-32h6.703125c9.328125 0 18.113281-2.992188 25.296875-8.199219v8.199219h6.703125c9.328125 0 18.113281-2.992188 25.296875-8.199219v8.199219h6.703125c9.328125 0 18.113281-2.992188 25.296875-8.199219v40.199219c0 26.472656-21.527344 48-48 48s-48-21.527344-48-48zm48 64c8.488281 0 16.585938-1.695312 24-4.710938v8.710938l-24 18-24-18v-8.710938c7.414062 3.015626 15.511719 4.710938 24 4.710938zm-112 50.703125c0-11.597656 8.289062-21.527344 19.703125-23.613281l36.921875-6.707032 9.726562 58.386719 21.222657-16.976562 8.019531 12.023437-8.160156 48.9375 24.566406 24.558594 24.566406-24.570312-8.160156-48.933594 8.019531-12.023438 21.222657 16.976563 9.726562-58.386719 36.914062 6.703125c11.421876 2.089844 19.710938 12.027344 19.710938 23.625v32.761719l10-2.585938c2.320312-.597656 4.222656-.878906 6-.878906 13.230469 0 24 10.769531 24 24s-10.769531 24-24 24c-1.777344 0-3.679688-.28125-6-.871094l-10-2.59375v35.464844h-224zm464 109.296875h-224v-16c22.054688 0 40-17.945312 40-40s-17.945312-40-40-40v-13.296875c0-11.597656 8.289062-21.527344 19.703125-23.613281l36.921875-6.707032 9.726562 58.386719 21.222657-16.976562 8.019531 12.023437-8.160156 48.9375 24.566406 24.558594 24.566406-24.570312-8.160156-48.933594 8.019531-12.023438 21.222657 16.976563 9.726562-58.386719 36.914062 6.703125c11.421876 2.089844 19.710938 12.027344 19.710938 23.625zm0 0"/><path d="m0 480h16v16h-16zm0 0"/><path d="m32 480h16v16h-16zm0 0"/><path d="m64 480h16v16h-16zm0 0"/><path d="m241.601562 460.800781 14.398438 19.199219h-160v16h192l-33.601562-44.800781zm0 0"/><path d="m480 0h16v16h-16zm0 0"/><path d="m448 0h16v16h-16zm0 0"/><path d="m416 0h16v16h-16zm0 0"/><path d="m254.398438 35.199219-14.398438-19.199219h160v-16h-192l33.601562 44.800781zm0 0"/></svg>