<?xml version="1.0" encoding="iso-8859-1"?>
<!-- Generator: Adobe Illustrator 19.0.0, SVG Export Plug-In . SVG Version: 6.00 Build 0)  -->
<svg version="1.1" id="Capa_1" xmlns="http://www.w3.org/2000/svg" xmlns:xlink="http://www.w3.org/1999/xlink" x="0px" y="0px"
	 viewBox="0 0 512 512" style="enable-background:new 0 0 512 512;" xml:space="preserve">
<g>
	<g>
		<path d="M504.5,84.17H7.5c-4.142,0-7.5,3.358-7.5,7.5c0,4.142,3.358,7.5,7.5,7.5h8.532v24.564c0,8.556,6.96,15.516,15.516,15.516
			h171.72l7.312,14.625c2.474,4.949,6.108,9.021,10.472,11.991c-2.899,3.912-4.617,8.749-4.617,13.98
			c0,7.035,3.107,13.354,8.016,17.67v22.56c0,2.691-1.131,5.118-3.027,6.493c-8.998,6.525-13.817,17.031-12.894,28.104
			c1.101,13.191,10.838,24.052,23.588,27.621c-1.342,12.033-6.296,18.312-8.184,18.312H222.1c-15.553,0-30.146,7.617-39.036,20.375
			c-2.368,3.398-1.533,8.073,1.866,10.441c3.397,2.368,8.073,1.533,10.441-1.866c6.087-8.735,16.079-13.95,26.729-13.95h10.366v25.1
			c-13.024,0.2-25.067,6.738-32.307,17.599l-13.027,19.54c-4.566,6.849-12.208,10.938-20.439,10.938h-7.932
			c-7.051,0-13.104,4.784-15.062,11.904c-1.967,7.15-8.529,12.145-15.958,12.145c-4.585,0-8.849-1.833-12.006-5.16
			c-3.155-3.324-4.759-7.688-4.519-12.29c0.452-8.628,8.475-15.647,17.885-15.647h17.375c10.949,0,20.95-5.543,26.753-14.828
			l4.869-7.791c2.195-3.513,1.128-8.14-2.385-10.335c-3.514-2.197-8.14-1.127-10.335,2.385l-4.869,7.791
			c-3.044,4.871-8.291,7.778-14.034,7.778H129.1c-17.552,0-31.988,13.118-32.865,29.863c-0.458,8.751,2.603,17.061,8.618,23.399
			c5.931,6.25,14.273,9.834,22.887,9.834c14.159,0,26.669-9.526,30.421-23.167c0.159-0.579,0.475-0.881,0.6-0.881h7.932
			c13.258,0,25.564-6.586,32.919-17.618l13.027-19.541c4.566-6.849,12.207-10.938,20.439-10.938h46.968
			c8.232,0,15.873,4.089,20.439,10.938l13.026,19.54c7.354,11.032,19.661,17.619,32.92,17.619h6.837c0.125,0,0.441,0.303,0.6,0.882
			c3.752,13.64,16.262,23.166,30.421,23.166c8.614,0,16.956-3.584,22.886-9.834c6.015-6.338,9.076-14.648,8.618-23.4
			c-0.878-16.746-15.314-29.863-32.866-29.863h-16.28c-5.743,0-10.989-2.908-14.033-7.778l-21.242-33.988
			c-8.751-14.003-23.834-22.363-40.348-22.363h-2.963c-1.888,0-6.842-6.279-8.184-18.312c12.751-3.569,22.487-14.429,23.588-27.621
			c0.924-11.072-3.896-21.578-12.894-28.103c-1.896-1.375-3.027-3.802-3.027-6.493v-22.56c4.909-4.316,8.016-10.635,8.016-17.67
			c0-5.232-1.718-10.069-4.617-13.98c4.364-2.97,7.998-7.042,10.472-11.991l7.312-14.625h115.61c4.142,0,7.5-3.358,7.5-7.5
			c0-4.142-3.358-7.5-7.5-7.5H31.548c-0.285,0-0.516-0.231-0.516-0.516V99.17h449.936v24.564c0,0.285-0.231,0.516-0.516,0.516
			h-24.046c-4.142,0-7.5,3.358-7.5,7.5c0,4.142,3.358,7.5,7.5,7.5h24.046c8.556,0,15.516-6.96,15.516-15.516V99.17h8.532
			c4.142,0,7.5-3.358,7.5-7.5C512,87.527,508.642,84.17,504.5,84.17z M264.532,340.686h-17.064v-25.081h17.064V340.686z
			 M242.643,300.605c2.214-4.839,3.754-10.633,4.432-17.064h17.85c0.677,6.432,2.218,12.226,4.432,17.064H242.643z M291.027,315.605
			L291.027,315.605c11.307,0.001,21.635,5.725,27.627,15.313l21.242,33.988c5.803,9.285,15.804,14.829,26.753,14.829h16.28
			c9.411,0,17.435,7.02,17.887,15.647c0.241,4.601-1.364,8.965-4.519,12.29c-3.158,3.327-7.421,5.16-12.006,5.16
			c-7.429,0-13.991-4.994-15.958-12.145c-1.959-7.12-8.012-11.904-15.063-11.904h-6.837c-8.232,0-15.874-4.089-20.44-10.939
			l-13.026-19.54c-7.354-11.032-19.661-17.618-32.919-17.618h-0.516v-25.081H291.027z M288.521,253.424
			c-0.708,8.477-8.495,15.116-17.729,15.116h-29.584c-9.234,0-17.021-6.64-17.729-15.116c-0.484-5.796,2.041-11.296,6.752-14.713
			c5.773-4.188,9.22-11.154,9.22-18.635V203.38h33.097v16.697c0,7.481,3.447,14.448,9.22,18.635
			C286.48,242.128,289.004,247.629,288.521,253.424z M231.436,179.847c0-4.704,3.828-8.532,8.532-8.532h32.064
			c4.705,0,8.532,3.828,8.532,8.532s-3.827,8.532-8.532,8.532h-32.064C235.263,188.379,231.436,184.551,231.436,179.847z
			 M291.962,139.251l-3.958,7.916c-2.822,5.643-8.493,9.148-14.802,9.148h-34.403c-6.309,0-11.98-3.505-14.802-9.147l-3.958-7.917
			H291.962z"/>
	</g>
</g>
<g>
</g>
<g>
</g>
<g>
</g>
<g>
</g>
<g>
</g>
<g>
</g>
<g>
</g>
<g>
</g>
<g>
</g>
<g>
</g>
<g>
</g>
<g>
</g>
<g>
</g>
<g>
</g>
<g>
</g>
</svg>
